<?xml version="1.0" encoding="UTF-8" standalone="no"?>
<svg
   xmlns:dc="http://purl.org/dc/elements/1.1/"
   xmlns:cc="http://creativecommons.org/ns#"
   xmlns:rdf="http://www.w3.org/1999/02/22-rdf-syntax-ns#"
   xmlns:svg="http://www.w3.org/2000/svg"
   xmlns="http://www.w3.org/2000/svg"
   viewBox="0 0 740.05334 168.78667"
   height="168.78667"
   width="740.05334"
   xml:space="preserve"
   id="svg2"
   version="1.1"><metadata
     id="metadata8"><rdf:RDF><cc:Work
         rdf:about=""><dc:format>image/svg+xml</dc:format><dc:type
           rdf:resource="http://purl.org/dc/dcmitype/StillImage" /></cc:Work></rdf:RDF></metadata><defs
     id="defs6" /><g
     transform="matrix(1.3333333,0,0,-1.3333333,0,168.78667)"
     id="g10"><g
       transform="scale(0.1)"
       id="g12"><path
         id="path14"
         style="fill:#1c1615;fill-opacity:1;fill-rule:nonzero;stroke:none"
         d="M 2312.81,1265.91 V 621.906 H 2163.77 V 885.949 H 1871.21 V 621.906 h -149.03 v 644.004 h 149.03 v -253.93 h 292.56 v 253.93 h 149.04" /><path
         id="path16"
         style="fill:#1c1615;fill-opacity:1;fill-rule:nonzero;stroke:none"
         d="m 3032.8,621.906 -0.92,386.394 -189.53,-318.32 h -67.14 L 2586.6,1000.02 V 621.906 h -139.83 v 644.004 h 123.27 l 241.04,-400.207 237.37,400.207 h 122.35 l 1.85,-644.004 H 3032.8" /><path
         id="path18"
         style="fill:#1c1615;fill-opacity:1;fill-rule:nonzero;stroke:none"
         d="m 3679.18,949.887 c 23.3,19.324 34.96,46.765 34.96,82.343 0,36.18 -11.66,63.93 -34.96,83.26 -23.31,19.31 -57.35,28.97 -102.12,28.97 H 3455.62 V 920.91 h 121.44 c 44.77,0 78.81,9.656 102.12,28.977 z m 54.74,287.493 c 42.01,-19.01 74.36,-45.99 97.07,-80.95 22.67,-34.96 34.03,-76.36 34.03,-124.2 0,-47.238 -11.36,-88.476 -34.03,-123.742 -22.71,-35.273 -55.06,-62.258 -97.07,-80.968 -42.02,-18.711 -91.55,-28.055 -148.58,-28.055 H 3455.62 V 621.906 h -149.04 v 644.004 h 278.76 c 57.03,0 106.56,-9.52 148.58,-28.53" /><path
         id="path20"
         style="fill:#1c1615;fill-opacity:1;fill-rule:nonzero;stroke:none"
         d="m 1482.43,22.8008 c 9.77,0 18.34,1.8711 25.75,5.6094 7.42,3.7382 13.12,9.0507 17.1,15.9609 3.99,6.8984 5.99,14.918 5.99,24.0391 0,9.1093 -2,17.1289 -5.99,24.0312 -3.98,6.9102 -9.68,12.2186 -17.1,15.9566 -7.41,3.743 -15.98,5.614 -25.75,5.614 h -32.29 V 22.8008 Z m -56.99,112.0972 h 58.14 c 14.18,0 26.78,-2.75 37.81,-8.257 11.02,-5.512 19.57,-13.301 25.65,-23.371 6.08,-10.0708 9.12,-21.6997 9.12,-34.8598 0,-13.1797 -3.04,-24.7891 -9.12,-34.8711 -6.08,-10.0703 -14.63,-17.8477 -25.65,-23.3672 -11.03,-5.51174 -23.63,-8.26174 -37.81,-8.26174 h -58.14 V 134.898" /><path
         id="path22"
         style="fill:#1c1615;fill-opacity:1;fill-rule:nonzero;stroke:none"
         d="m 1668.01,27.6484 c 7.09,3.9922 12.66,9.5625 16.72,16.7227 4.05,7.1602 6.08,15.168 6.08,24.0391 0,8.8593 -2.03,16.8711 -6.08,24.0312 -4.06,7.1484 -9.63,12.7306 -16.72,16.7186 -7.1,3.988 -15.08,5.988 -23.94,5.988 -8.86,0 -16.85,-2 -23.94,-5.988 -7.09,-3.988 -12.67,-9.5702 -16.72,-16.7186 -4.06,-7.1601 -6.08,-15.1719 -6.08,-24.0312 0,-8.8711 2.02,-16.8789 6.08,-24.0391 4.05,-7.1602 9.63,-12.7305 16.72,-16.7227 7.09,-3.9882 15.08,-5.9882 23.94,-5.9882 8.86,0 16.84,2 23.94,5.9882 z M 1607.39,8.83984 c -10.89,5.89066 -19.43,14.05856 -25.64,24.51176 -6.21,10.4492 -9.32,22.1367 -9.32,35.0586 0,12.9218 3.11,24.6015 9.32,35.0508 6.21,10.449 14.75,18.617 25.64,24.508 10.9,5.89 23.13,8.84 36.68,8.84 13.55,0 25.77,-2.95 36.66,-8.84 10.9,-5.891 19.46,-14.028 25.66,-24.41 6.2,-10.3871 9.3,-22.1098 9.3,-35.1488 0,-13.0508 -3.1,-24.7696 -9.3,-35.1602 -6.2,-10.3789 -14.76,-18.5195 -25.66,-24.41016 C 1669.84,2.94922 1657.62,0 1644.07,0 c -13.55,0 -25.78,2.94922 -36.68,8.83984" /><path
         id="path24"
         style="fill:#1c1615;fill-opacity:1;fill-rule:nonzero;stroke:none"
         d="m 1818.6,107.172 c -5.57,4.558 -13.75,6.84 -24.51,6.84 h -28.88 V 61 h 28.88 c 10.76,0 18.94,2.3008 24.51,6.9297 5.57,4.6211 8.36,11.1797 8.36,19.6719 0,8.4765 -2.79,15.0074 -8.36,19.5704 z m 8.93,-105.26184 -27.17,38.94144 c -1.13,-0.1328 -2.85,-0.1797 -5.14,-0.1797 h -30.01 V 1.91016 h -24.69 V 134.898 h 54.7 c 11.54,0 21.58,-1.886 30.12,-5.687 8.56,-3.813 15.11,-9.25 19.67,-16.352 4.56,-7.089 6.84,-15.5074 6.84,-25.2574 0,-10.0118 -2.45,-18.6211 -7.31,-25.8399 -4.88,-7.2304 -11.87,-12.6133 -21,-16.1523 l 30.59,-43.69924 h -26.6" /><path
         id="path26"
         style="fill:#1c1615;fill-opacity:1;fill-rule:nonzero;stroke:none"
         d="m 1962.24,52.0586 -25.08,58.1524 -24.88,-58.1524 z m 8.17,-19.3672 h -66.49 L 1890.8,1.91016 h -25.46 l 59.85,132.98784 h 24.31 L 2009.55,1.91016 h -25.84 l -13.3,30.78124" /><path
         id="path28"
         style="fill:#1c1615;fill-opacity:1;fill-rule:nonzero;stroke:none"
         d="m 2082.83,22.8008 c 9.76,0 18.33,1.8711 25.75,5.6094 7.41,3.7382 13.11,9.0507 17.09,15.9609 4,6.8984 6,14.918 6,24.0391 0,9.1093 -2,17.1289 -6,24.0312 -3.98,6.9102 -9.68,12.2186 -17.09,15.9566 -7.42,3.743 -15.99,5.614 -25.75,5.614 h -32.29 V 22.8008 Z m -57,112.0972 h 58.14 c 14.18,0 26.79,-2.75 37.82,-8.257 11.01,-5.512 19.57,-13.301 25.64,-23.371 6.09,-10.0708 9.12,-21.6997 9.12,-34.8598 0,-13.1797 -3.03,-24.7891 -9.12,-34.8711 -6.07,-10.0703 -14.63,-17.8477 -25.64,-23.3672 -11.03,-5.51174 -23.64,-8.26174 -37.82,-8.26174 h -58.14 V 134.898" /><path
         id="path30"
         style="fill:#1c1615;fill-opacity:1;fill-rule:nonzero;stroke:none"
         d="M 2278.68,22.8008 V 1.91016 H 2165.24 V 18.4414 l 78.29,95.5706 h -76.95 v 20.886 h 109.63 v -16.519 l -78.28,-95.5782 h 80.75" /><path
         id="path32"
         style="fill:#1c1615;fill-opacity:1;fill-rule:nonzero;stroke:none"
         d="m 2332.14,114.012 h -44.07 v 20.886 h 112.86 v -20.886 h -44.08 V 1.91016 h -24.71 V 114.012" /><path
         id="path34"
         style="fill:#1c1615;fill-opacity:1;fill-rule:nonzero;stroke:none"
         d="M 2618.96,134.898 2574.87,1.91016 h -26.23 L 2515.77,100.32 2482.33,1.91016 h -26.4 L 2411.85,134.898 h 25.65 l 33.06,-101.066 34.39,101.066 h 22.79 l 33.64,-101.648 34.01,101.648 h 23.57" /><path
         id="path36"
         style="fill:#1c1615;fill-opacity:1;fill-rule:nonzero;stroke:none"
         d="m 2721.9,27.6484 c 7.09,3.9922 12.68,9.5625 16.72,16.7227 4.07,7.1602 6.09,15.168 6.09,24.0391 0,8.8593 -2.02,16.8711 -6.09,24.0312 -4.04,7.1484 -9.63,12.7306 -16.72,16.7186 -7.09,3.988 -15.07,5.988 -23.93,5.988 -8.87,0 -16.85,-2 -23.94,-5.988 -7.1,-3.988 -12.67,-9.5702 -16.72,-16.7186 -4.06,-7.1601 -6.08,-15.1719 -6.08,-24.0312 0,-8.8711 2.02,-16.8789 6.08,-24.0391 4.05,-7.1602 9.62,-12.7305 16.72,-16.7227 7.09,-3.9882 15.07,-5.9882 23.94,-5.9882 8.86,0 16.84,2 23.93,5.9882 z M 2661.3,8.83984 c -10.9,5.89066 -19.44,14.05856 -25.65,24.51176 -6.21,10.4492 -9.31,22.1367 -9.31,35.0586 0,12.9218 3.1,24.6015 9.31,35.0508 6.21,10.449 14.75,18.617 25.65,24.508 10.9,5.89 23.11,8.84 36.67,8.84 13.54,0 25.77,-2.95 36.67,-8.84 10.9,-5.891 19.44,-14.028 25.64,-24.41 6.21,-10.3871 9.32,-22.1098 9.32,-35.1488 0,-13.0508 -3.11,-24.7696 -9.32,-35.1602 -6.2,-10.3789 -14.74,-18.5195 -25.64,-24.41016 C 2723.74,2.94922 2711.51,0 2697.97,0 2684.41,0 2672.2,2.94922 2661.3,8.83984" /><path
         id="path38"
         style="fill:#1c1615;fill-opacity:1;fill-rule:nonzero;stroke:none"
         d="m 2926.35,68.0313 c 5.57,4.5585 8.36,11.0781 8.36,19.5703 0,8.4765 -2.79,15.0074 -8.36,19.5704 -5.58,4.558 -13.74,6.84 -24.51,6.84 h -28.88 V 61.1797 h 28.88 c 10.77,0 18.93,2.2891 24.51,6.8516 z m 6.75,61.1797 c 8.54,-3.813 15.09,-9.25 19.65,-16.352 4.56,-7.089 6.85,-15.5074 6.85,-25.2574 0,-9.6328 -2.29,-18.0313 -6.85,-25.1797 -4.56,-7.1524 -11.11,-12.6328 -19.65,-16.4336 -8.56,-3.7969 -18.6,-5.707 -30.12,-5.707 h -30.02 V 1.91016 h -24.71 V 134.898 h 54.73 c 11.52,0 21.56,-1.886 30.12,-5.687" /><path
         id="path40"
         style="fill:#1c1615;fill-opacity:1;fill-rule:nonzero;stroke:none"
         d="m 3071.26,27.6484 c 7.09,3.9922 12.67,9.5625 16.72,16.7227 4.05,7.1602 6.07,15.168 6.07,24.0391 0,8.8593 -2.02,16.8711 -6.07,24.0312 -4.05,7.1484 -9.63,12.7306 -16.72,16.7186 -7.09,3.988 -15.08,5.988 -23.95,5.988 -8.86,0 -16.83,-2 -23.93,-5.988 -7.1,-3.988 -12.67,-9.5702 -16.72,-16.7186 -4.05,-7.1601 -6.08,-15.1719 -6.08,-24.0312 0,-8.8711 2.03,-16.8789 6.08,-24.0391 4.05,-7.1602 9.62,-12.7305 16.72,-16.7227 7.1,-3.9882 15.07,-5.9882 23.93,-5.9882 8.87,0 16.86,2 23.95,5.9882 z M 3010.65,8.83984 C 2999.76,14.7305 2991.2,22.8984 2985,33.3516 c -6.21,10.4492 -9.31,22.1367 -9.31,35.0586 0,12.9218 3.1,24.6015 9.31,35.0508 6.2,10.449 14.76,18.617 25.65,24.508 10.89,5.89 23.11,8.84 36.66,8.84 13.56,0 25.79,-2.95 36.68,-8.84 10.89,-5.891 19.44,-14.028 25.65,-24.41 6.21,-10.3871 9.32,-22.1098 9.32,-35.1488 0,-13.0508 -3.11,-24.7696 -9.32,-35.1602 C 3103.43,22.8711 3094.88,14.7305 3083.99,8.83984 3073.1,2.94922 3060.87,0 3047.31,0 c -13.55,0 -25.77,2.94922 -36.66,8.83984" /><path
         id="path42"
         style="fill:#1c1615;fill-opacity:1;fill-rule:nonzero;stroke:none"
         d="m 3200.76,22.8008 c 9.76,0 18.33,1.8711 25.75,5.6094 7.41,3.7382 13.11,9.0507 17.09,15.9609 4,6.8984 6,14.918 6,24.0391 0,9.1093 -2,17.1289 -6,24.0312 -3.98,6.9102 -9.68,12.2186 -17.09,15.9566 -7.42,3.743 -15.99,5.614 -25.75,5.614 h -32.29 V 22.8008 Z m -57,112.0972 h 58.14 c 14.18,0 26.79,-2.75 37.82,-8.257 11.01,-5.512 19.57,-13.301 25.64,-23.371 6.09,-10.0708 9.12,-21.6997 9.12,-34.8598 0,-13.1797 -3.03,-24.7891 -9.12,-34.8711 -6.07,-10.0703 -14.63,-17.8477 -25.64,-23.3672 -11.03,-5.51174 -23.64,-8.26174 -37.82,-8.26174 h -58.14 V 134.898" /><path
         id="path44"
         style="fill:#1c1615;fill-opacity:1;fill-rule:nonzero;stroke:none"
         d="m 3372.39,52.0586 -25.09,58.1524 -24.89,-58.1524 z m 8.17,-19.3672 h -66.51 l -13.1,-30.78124 h -25.47 l 59.86,132.98784 h 24.32 L 3419.7,1.91016 h -25.84 l -13.3,30.78124" /><path
         id="path46"
         style="fill:#1c1615;fill-opacity:1;fill-rule:nonzero;stroke:none"
         d="m 3449.3,114.012 h -44.08 v 20.886 h 112.86 v -20.886 h -44.09 V 1.91016 H 3449.3 V 114.012" /><path
         id="path48"
         style="fill:#1c1615;fill-opacity:1;fill-rule:nonzero;stroke:none"
         d="M 3581.08,57.582 3559.99,35.9219 V 1.91016 h -24.7 V 134.898 h 24.7 V 66.6914 l 65.74,68.2066 h 27.74 l -55.86,-59.4683 59.27,-73.51954 h -28.86 L 3581.08,57.582" /><path
         id="path50"
         style="fill:#1c1615;fill-opacity:1;fill-rule:nonzero;stroke:none"
         d="m 3751.79,27.6484 c 7.09,3.9922 12.67,9.5625 16.72,16.7227 4.06,7.1602 6.08,15.168 6.08,24.0391 0,8.8593 -2.02,16.8711 -6.08,24.0312 -4.05,7.1484 -9.63,12.7306 -16.72,16.7186 -7.09,3.988 -15.08,5.988 -23.94,5.988 -8.87,0 -16.84,-2 -23.93,-5.988 -7.1,-3.988 -12.68,-9.5702 -16.72,-16.7186 -4.07,-7.1601 -6.09,-15.1719 -6.09,-24.0312 0,-8.8711 2.02,-16.8789 6.09,-24.0391 4.04,-7.1602 9.62,-12.7305 16.72,-16.7227 7.09,-3.9882 15.06,-5.9882 23.93,-5.9882 8.86,0 16.85,2 23.94,5.9882 z M 3691.18,8.83984 c -10.9,5.89066 -19.44,14.05856 -25.64,24.51176 -6.21,10.4492 -9.32,22.1367 -9.32,35.0586 0,12.9218 3.11,24.6015 9.32,35.0508 6.2,10.449 14.74,18.617 25.64,24.508 10.9,5.89 23.12,8.84 36.67,8.84 13.55,0 25.77,-2.95 36.67,-8.84 10.9,-5.891 19.44,-14.028 25.65,-24.41 6.21,-10.3871 9.31,-22.1098 9.31,-35.1488 0,-13.0508 -3.1,-24.7696 -9.31,-35.1602 C 3783.96,22.8711 3775.42,14.7305 3764.52,8.83984 3753.62,2.94922 3741.4,0 3727.85,0 c -13.55,0 -25.77,2.94922 -36.67,8.83984" /><path
         id="path52"
         style="fill:#1c1615;fill-opacity:1;fill-rule:nonzero;stroke:none"
         d="M 4013.97,134.898 3969.89,1.91016 h -26.22 L 3910.8,100.32 3877.36,1.91016 h -26.41 L 3806.88,134.898 h 25.65 l 33.05,-101.066 34.39,101.066 h 22.8 l 33.63,-101.648 34.02,101.648 h 23.55" /><path
         id="path54"
         style="fill:#1c1615;fill-opacity:1;fill-rule:nonzero;stroke:none"
         d="M 4133.11,22.6211 V 1.91016 h -99.76 V 134.898 h 97.09 v -20.707 h -72.38 V 79.6211 h 64.22 v -20.332 h -64.22 v -36.668 h 75.05" /><path
         id="path56"
         style="fill:#831d26;fill-opacity:1;fill-rule:nonzero;stroke:none"
         d="M 5550.37,331.301 H 0 v 32.031 h 5550.37 v -32.031" /></g></g></svg>